<svg width="68" height="81" viewBox="0 0 68 81" fill="none" xmlns="http://www.w3.org/2000/svg">
<path fill-rule="evenodd" clip-rule="evenodd" d="M44.9998 32.4683L42.6309 35.3889L51.8148 44.6053C54.5732 43.8913 57.4289 42.4635 60.1549 40.062C68.6898 32.5332 61.096 21.8565 55.8712 28.0548C55.5143 28.4767 54.6056 22.9923 52.1068 24.0308C50.3544 24.7772 53.34 29.3853 48.0828 31.8517C47.239 32.2411 46.2655 32.4683 44.9998 32.4683Z" fill="#98EFE4" stroke="black" stroke-width="0.962826" stroke-linecap="round" stroke-linejoin="round"/>
<path fill-rule="evenodd" clip-rule="evenodd" d="M48.0179 32.2092C48.6669 35.2921 50.2246 37.726 51.8472 39.2512C54.4109 41.5878 56.715 42.4964 56.715 42.5289C55.352 43.3402 55.06 43.1455 53.5996 43.7621C53.2426 43.9243 53.3725 43.3077 53.0479 42.5938C51.685 39.3486 50.5491 38.3426 47.6285 36.363C46.1032 35.3246 45.0648 34.708 44.6753 32.8582C44.6104 32.4688 45.7138 32.4688 46.59 32.339C47.3689 32.1767 47.9205 31.8522 48.0179 32.2092Z" fill="black" stroke="black" stroke-width="0.958227" stroke-linecap="round" stroke-linejoin="round"/>
<path fill-rule="evenodd" clip-rule="evenodd" d="M58.6768 76.4561C63.0141 77.2819 66.9114 78.4517 66.9114 79.3119C66.9114 80.1377 63.6427 80.0001 59.4311 80.0001C55.2509 80.0001 51.6993 80.0689 51.6993 79.0023C51.6993 77.9012 54.3394 75.6648 58.6768 76.4561Z" fill="black" stroke="black" stroke-width="0.511053" stroke-linecap="round" stroke-linejoin="round"/>
<path fill-rule="evenodd" clip-rule="evenodd" d="M17.9675 77.1213C13.4891 77.8677 9.49754 78.971 9.46509 79.7823C9.46509 80.5936 12.8401 80.4314 17.1886 80.4314C21.5372 80.4314 25.1718 80.4963 25.1718 79.4903C25.1718 78.4842 22.4459 76.3424 17.9675 77.1213Z" fill="black" stroke="black" stroke-width="0.511053" stroke-linecap="round" stroke-linejoin="round"/>
<path fill-rule="evenodd" clip-rule="evenodd" d="M38.5419 10.8874C37.6657 4.81894 32.0515 -1.80125 24.6525 1.18432C22.9001 1.89827 19.6549 4.33216 18.4542 8.45355C16.7342 14.4572 16.215 26.0749 15.2414 32.2733C15.1116 32.9872 13.3592 33.3442 12.4505 34.6098C10.8604 36.7516 9.46497 40.3538 9.23781 42.5281C8.75103 47.2011 11.7042 53.6266 11.6392 55.1843C11.5419 58.2023 10.9253 63.9788 9.85439 66.3802C8.49141 69.4307 10.3087 71.3129 12.7751 73.26C14.6248 74.7204 16.8316 76.3105 18.3892 77.8682C19.9145 79.361 21.1477 80.1398 23.1597 80.1398C24.1657 80.1398 26.5347 80.2047 28.5791 80.0425C30.4938 79.8802 32.1164 79.7829 32.1489 78.9067C32.2138 76.8297 31.5972 75.2396 31.0455 74.2985C30.1693 72.7084 25.8856 69.2035 26.7294 70.0797C26.7294 70.0797 36.2378 74.8502 44.221 69.7552C44.2534 69.7228 47.1741 74.2011 47.9205 74.98C49.3808 76.5701 50.5491 78.0629 51.6849 78.9067C55.5142 81.8598 63.3027 72.2216 64.471 69.3009C65.3147 67.1591 65.2498 65.2769 63.6272 64.9199C61.4205 64.4331 57.9157 65.4067 56.0984 66.0557C55.3844 63.1999 54.346 59.6627 54.0864 59.2084C53.8916 58.8189 57.1368 52.0365 53.7618 43.9884C51.6525 38.9584 48.8616 36.6218 44.87 34.4151C44.9349 34.6747 44.1885 28.6386 43.9614 27.081C43.4746 23.998 43.7342 12.3478 38.5419 10.8874Z" fill="#98EFE4"/>
<path d="M38.7043 11.0496C38.1851 7.35004 36.4976 3.35846 32.1165 1.34644C26.1129 -1.44443 19.1358 2.80677 17.9675 10.4005C17.1887 15.3332 16.6694 21.8885 14.9819 32.7923" stroke="black" stroke-width="0.962826" stroke-linecap="round" stroke-linejoin="round"/>
<path d="M26.7296 70.0789C27.0866 70.4359 28.482 71.1174 29.845 72.675C33.2849 76.5693 32.2464 79.8145 31.2729 79.8794C29.6827 79.9767 24.8798 80.1714 23.9712 80.1065C21.6671 80.0092 21.4075 79.9443 20.0769 78.8734C18 77.2183 14.1058 73.9407 12.0289 72.6101C8.71877 70.4359 8.71877 68.002 10.5361 64.8541C10.958 64.1402 10.9904 59.4671 11.7693 54.1125" stroke="black" stroke-width="0.962826" stroke-linecap="round" stroke-linejoin="round"/>
<path d="M25.8208 69.4946C28.1249 71.2146 33.9987 72.902 39.6453 71.5066C55.7739 67.5475 60.7066 48.5956 49.0239 37.2698C48.602 36.8804 48.0179 36.3936 47.4338 35.9393C47.2066 35.7446 44.9674 34.1869 44.7403 34.0247" stroke="black" stroke-width="0.962952" stroke-linecap="round" stroke-linejoin="round"/>
<path d="M54.119 59.3704C54.7031 61.5446 55.774 64.8872 56.131 65.9581C56.2283 66.2177 62.9134 62.8103 64.893 65.8932C66.7103 68.7165 57.3317 81.4052 52.0096 79.166C50.2572 78.4521 46.4279 73.2922 44.1238 70.047" stroke="black" stroke-width="0.962826" stroke-linecap="round" stroke-linejoin="round"/>
<path d="M56.8125 65.7961C55.5793 66.2829 54.6707 66.7697 53.8918 67.5161" stroke="black" stroke-width="0.963335" stroke-linecap="round" stroke-linejoin="round"/>
<path d="M25.8208 69.4969C25.9506 69.1399 27.054 64.9211 27.054 64.9211" stroke="black" stroke-width="0.963335" stroke-linecap="round" stroke-linejoin="round"/>
<path fill-rule="evenodd" clip-rule="evenodd" d="M46.2004 72.2862C46.0057 71.7345 48.5045 68.5543 48.9588 68.0999C50.0622 67.029 53.5995 63.4269 54.9949 63.0699C55.2545 63.005 54.2161 59.5002 54.1187 59.3704C53.8915 59.922 51.0033 64.1083 50.6788 64.4653C49.9 65.2766 49.3807 66.1204 48.2449 66.9317C46.817 67.9377 45.6812 69.5927 43.9613 70.0146C43.8963 70.0146 46.2978 72.6432 46.2004 72.2862Z" fill="black"/>
<path d="M53.4048 79.4912C51.4577 79.2964 52.0418 77.1871 54.638 73.7472C56.1632 71.7351 58.3375 69.6582 60.3819 68.425" stroke="black" stroke-width="0.958227" stroke-linecap="round" stroke-linejoin="round"/>
<path fill-rule="evenodd" clip-rule="evenodd" d="M20.4662 11.9594C19.8821 12.1866 18.584 15.1397 19.7848 14.9126C20.2715 14.8152 20.4987 12.8032 21.2775 12.6085C21.6994 12.4787 22.1862 12.2515 22.4783 12.1541C22.8028 12.0568 22.9001 12.0892 23.0948 12.5111C23.2571 12.8356 24.036 14.7503 24.5227 14.5556C25.1393 14.296 28.9037 13.1926 29.0011 13.1926C29.066 13.1926 28.417 10.9859 28.4494 10.1421C28.4494 10.0772 28.417 8.7467 28.3845 8.77915L20.4662 11.9594Z" fill="black" stroke="black" stroke-width="0.511053" stroke-linecap="round" stroke-linejoin="round"/>
<path fill-rule="evenodd" clip-rule="evenodd" d="M29.5528 8.48656C30.5588 8.42166 31.9218 8.35676 33.3496 8.1945C34.2583 8.09714 34.6802 8.29185 34.81 8.35676C35.4266 8.77863 35.2643 8.74618 35.459 8.58392C35.6537 8.38921 35.8809 8.03224 36.7571 7.96733C37.179 7.93488 39.0612 7.67527 40.2944 7.61036C41.3653 7.51301 41.6573 7.64281 41.8845 8.58392C42.0143 9.23296 42.2739 10.4012 42.3064 11.0503C42.3388 11.8291 41.7222 11.9265 41.5275 11.9914C40.7811 12.1212 38.6069 12.4457 37.1465 12.5106C36.4001 12.5431 36.4326 12.3808 36.173 12.0238C36.0107 11.8291 35.6537 11.7967 35.5239 11.9914C35.3292 12.251 35.1994 12.8027 34.2583 12.8027C33.6093 12.8027 31.727 13.1272 30.429 13.2245C29.4554 13.2894 28.9037 13.2894 28.6117 12.9C28.4169 12.6729 28.352 12.2834 28.2871 11.8616C28.1573 11.3748 28.0275 10.5959 27.9626 10.1741C27.8328 9.20051 27.9302 8.58392 29.5528 8.48656Z" fill="black" stroke="black" stroke-width="0.511053" stroke-linecap="round" stroke-linejoin="round"/>
<path fill-rule="evenodd" clip-rule="evenodd" d="M29.2282 9.2328L33.6741 8.81093C34.031 8.77848 34.4205 9.00564 34.4854 9.39506L34.8423 11.3746C34.9397 11.7316 34.6801 12.121 34.2907 12.1535L29.8772 12.5429C29.4878 12.5754 29.1308 12.3482 29.0659 11.9912L28.6765 10.0116C28.6116 9.62223 28.8712 9.26525 29.2282 9.2328Z" fill="black" stroke="black" stroke-width="0.225375" stroke-linecap="round" stroke-linejoin="round"/>
<path fill-rule="evenodd" clip-rule="evenodd" d="M36.4975 8.58404L40.4566 8.16216C40.8461 8.12971 41.203 8.38933 41.2679 8.7463L41.6574 10.7259C41.7223 11.0828 41.4626 11.4723 41.1057 11.5047L37.1141 11.8941C36.7571 11.959 36.3677 11.6994 36.3028 11.3424L35.9458 9.36288C35.8809 8.97346 36.1081 8.61649 36.4975 8.58404Z" fill="black" stroke="black" stroke-width="0.225375" stroke-linecap="round" stroke-linejoin="round"/>
<path d="M32.6355 9.13599L30.5911 12.154" stroke="white" stroke-width="0.958227" stroke-linecap="round" stroke-linejoin="round"/>
<path d="M38.2501 8.74536L36.8223 11.0819" stroke="white" stroke-width="0.958227" stroke-linecap="round" stroke-linejoin="round"/>
<path d="M41.0733 9.75317L40.2944 11.1162" stroke="white" stroke-width="0.958227" stroke-linecap="round" stroke-linejoin="round"/>
<path fill-rule="evenodd" clip-rule="evenodd" d="M14.9496 30.3914C16.053 30.0669 19.9796 30.3265 24.1659 33.4094C24.9448 33.9611 22.1215 33.0524 19.3306 32.7928C16.9292 32.5981 14.5277 33.1173 14.5277 33.02C14.5277 33.02 14.8522 30.7159 14.9496 30.3914Z" fill="black"/>
<path fill-rule="evenodd" clip-rule="evenodd" d="M18.292 45.0923L21.2451 38.9589L15.5985 32.8254C10.9254 33.6367 7.35567 34.7077 3.07202 39.3483C-4.32702 47.4288 4.01312 56.8723 8.36168 50.4144C8.65375 49.96 10.0816 55.1199 12.3857 53.8543C13.3268 53.335 12.84 51.68 13.0348 49.7978C13.197 48.5322 13.4891 47.1692 15.4362 46.0009C16.1826 45.5466 17.1237 45.2221 18.292 45.0923Z" fill="#98EFE4"/>
<path d="M15.5987 32.8254C11.5098 33.5069 7.29105 34.6752 3.07231 39.3483C-3.51543 46.7473 4.01341 56.8723 8.36197 50.4144C8.65404 49.96 9.95211 55.1199 12.2562 53.8543C13.8463 53.0105 12.5158 48.662 15.7286 46.1307C16.41 45.579 17.4161 45.3843 18.5843 45.2545" stroke="black" stroke-width="0.958227" stroke-linecap="round" stroke-linejoin="round"/>
<path d="M14.8845 32.9552C17.9025 32.4684 21.9266 32.5008 25.8857 34.8049" stroke="black" stroke-width="0.958227" stroke-linecap="round" stroke-linejoin="round"/>
<path fill-rule="evenodd" clip-rule="evenodd" d="M43.215 23.4779C43.8641 25.7495 45.7463 36.1991 44.5455 47.5897C44.2859 49.9262 42.9229 49.5692 42.6309 48.0765C42.5011 47.3625 42.4686 46.2916 42.3388 45.3829C41.5275 39.4767 40.7811 35.0632 39.1585 29.5464C39.0936 29.2543 39.3857 29.0921 39.7102 28.7027C40.197 28.151 40.8136 27.1774 40.6513 26.7231C40.554 26.431 38.8665 26.0416 39.3208 26.0416C41.0083 26.0416 43.3773 24.3866 43.215 23.4779Z" fill="white" stroke="black" stroke-width="0.965892" stroke-linecap="round" stroke-linejoin="round"/>
<path d="M31.2727 29.5473C34.0636 31.4944 39.483 31.2024 40.6513 26.724" stroke="black" stroke-width="0.958227" stroke-linecap="round" stroke-linejoin="round"/>
<path fill-rule="evenodd" clip-rule="evenodd" d="M36.4651 27.5344C35.3942 28.3782 31.2079 29.2219 30.9482 27.7291C31.143 30.1306 32.5059 39.8986 37.6009 49.764C38.6393 51.8085 39.7752 51.0296 39.5155 49.5044C39.3857 48.758 39.0937 47.752 38.8665 46.8758C38.5744 45.4803 38.2499 43.8902 37.9579 42.0729C37.2115 37.1726 36.5624 28.3133 36.4651 27.5344Z" fill="white" stroke="black" stroke-width="0.963465" stroke-linecap="round" stroke-linejoin="round"/>
<path fill-rule="evenodd" clip-rule="evenodd" d="M34.1608 13.3214C38.1524 13.938 40.8784 17.5401 40.2618 21.4993C40.0346 22.9271 39.3856 24.2252 38.5094 25.2312C35.8159 28.2168 34.1284 29.7745 30.4613 29.2228C26.4697 28.6062 24.3928 24.4199 25.0094 20.4608C25.626 16.5017 30.2017 12.7048 34.1608 13.3214Z" fill="#98EFE4"/>
<path fill-rule="evenodd" clip-rule="evenodd" d="M39.9049 11.6329C41.4626 12.0548 45.4867 18.1558 45.2271 20.687C45.0648 22.4719 45.3244 24.8733 43.9614 25.9442C43.9614 25.9442 40.1321 26.9502 38.6393 26.0091C35.1021 23.7699 30.9807 21.693 31.5973 17.7014C32.2138 13.7423 38.3473 11.2111 39.9049 11.6329Z" fill="#98EFE4" stroke="#98EFE4" stroke-width="0.0973557" stroke-linecap="round" stroke-linejoin="round"/>
<path d="M38.5419 11.3411C41.8845 12.0226 45.6489 17.6367 45.5191 22.2125C45.4866 24.0298 44.9674 25.6199 43.215 26.3663C41.1381 27.275 38.7366 26.561 38.4446 25.8795" stroke="black" stroke-width="0.962826" stroke-linecap="round" stroke-linejoin="round"/>
<path d="M39.8724 20.363C40.3592 22.0829 39.6777 24.2897 38.6392 25.5229C35.2318 29.6442 27.6705 30.8125 25.5935 25.7176C24.8471 23.9003 24.8796 20.7524 25.4313 18.8378C26.1452 16.5661 27.7678 14.0349 30.007 13.1262" stroke="black" stroke-width="0.962826" stroke-linecap="round" stroke-linejoin="round"/>
<path fill-rule="evenodd" clip-rule="evenodd" d="M38.2173 14.263C38.055 14.6525 37.1139 14.7498 36.8218 14.0683C36.692 13.7114 36.4973 13.3544 36.2377 13.0948C35.8807 12.7054 35.5562 12.6729 35.1019 12.608C34.7774 12.5755 34.5177 12.5755 34.5177 12.5755C34.0634 11.0828 38.6067 11.0828 38.9312 11.6344C38.9961 11.7642 39.2233 11.8292 39.2557 11.9265C39.2557 12.251 38.5093 12.2186 38.3795 13.2895C38.3146 13.7763 38.3146 14.0034 38.2173 14.263Z" fill="#98EFE4"/>
<path d="M36.3675 14.2626L37.3086 13.8408V13.8732L37.3411 13.9057L37.3735 13.9381V13.9706H37.406L37.4384 14.003L37.4709 14.0355H37.5033H37.5358H37.5682H37.6007V14.0679H37.6331L37.6656 14.0355H37.6981H37.7305H37.763V14.0679L38.6716 14.4573L38.6392 14.5547L38.5743 14.6196L38.5094 14.6845L38.4444 14.7819L38.3795 14.8143L38.3146 14.8792L38.2173 14.9117L38.1524 14.9441L38.0875 14.9766L37.9901 15.009L37.9252 15.0415H37.8279L37.763 15.0739H37.6656H37.6007H37.5033H37.4384H37.3411L37.2762 15.0415L37.1788 15.009H37.0815L37.0166 14.9766L36.9192 14.9117L36.8543 14.8792L36.7894 14.8143L36.692 14.7494L36.6271 14.6845L36.5622 14.6196L36.4973 14.5547L36.4324 14.4573L36.4 14.36L36.3675 14.2626ZM35.8483 13.4513L36.6271 12.7374L36.6596 12.7699V12.8023L36.692 12.8348L36.7245 12.8672L36.7569 12.8997L36.7894 12.9321L36.8219 12.9646V12.997L36.8543 13.0295L36.8868 13.0619L36.9192 13.0944V13.1268L36.9517 13.1593L36.9841 13.1917V13.2242L37.0166 13.2566L37.049 13.3215V13.354L37.0815 13.3864L37.1139 13.4189V13.4513L37.1464 13.4838V13.5162L37.1788 13.5487V13.5811L37.2113 13.6136V13.6461L37.2437 13.711V13.7434L37.2762 13.7759V13.8083L37.3086 13.8408L36.3675 14.2626L36.3351 14.2302L36.3026 14.1977V14.1653V14.1328L36.2702 14.1004V14.0679H36.2377V14.0355V14.003L36.2053 13.9706V13.9381L36.1728 13.9057L36.1404 13.8732V13.8408L36.1079 13.8083V13.7759L36.0755 13.7434L36.043 13.711V13.6785L36.0106 13.6461L35.9781 13.6136V13.5811H35.9456V13.5487L35.9132 13.5162H35.8807V13.4838L35.8483 13.4513ZM35.0045 13.1268L35.1668 12.1208H35.2317H35.2642H35.3291H35.3615L35.394 12.1533H35.4589H35.4913H35.5238H35.5887L35.6211 12.1857H35.686H35.7185L35.7509 12.2182H35.8158L35.8483 12.2506H35.9132L35.9456 12.2831H36.0106L36.043 12.3155H36.0755L36.1404 12.348L36.1728 12.3804L36.2377 12.4129L36.2702 12.4453L36.3026 12.4778L36.3675 12.5102L36.4 12.5427L36.4324 12.5751L36.4973 12.6076L36.5298 12.64L36.5622 12.7049L36.6271 12.7374L35.8483 13.4513L35.8158 13.4189L35.7834 13.3864L35.7509 13.354L35.7185 13.3215H35.686V13.2891H35.6536H35.6211V13.2566H35.5887L35.5562 13.2242H35.5238H35.4913L35.4589 13.1917H35.4264H35.394H35.3615H35.3291L35.2966 13.1593H35.2642H35.2317H35.1993H35.1668H35.1344L35.0694 13.1268H35.037H35.0045ZM34.031 12.7699L35.0045 12.3804L34.5827 12.0559H34.6151H34.6476H34.68H34.7125H34.7449H34.7774H34.8098V12.0884H34.8423H34.8747H34.9072H34.9396H34.9721H35.0045H35.037H35.0694H35.1019H35.1344L35.1668 12.1208L35.0045 13.1268H34.9721H34.9396H34.9072H34.8747L34.8423 13.0944H34.8098H34.7774H34.7449H34.7125H34.68H34.6476H34.6151H34.5827H34.5502H34.5178H34.4853L34.031 12.7699ZM39.3531 11.342L38.4769 11.9261L38.5418 11.991L38.5094 11.9586H38.4444L38.3471 11.9261L38.2173 11.8936L38.0875 11.8612H37.9577L37.7954 11.8287H37.6007H37.4384L37.2437 11.7963L37.049 11.8287H36.8543H36.6596L36.4649 11.8612H36.2702L36.0755 11.8936L35.8807 11.9261L35.7185 11.991L35.5562 12.0235L35.4264 12.0559L35.2966 12.1208L35.1993 12.1533L35.1019 12.2182L35.0694 12.2506L35.037 12.2831L35.0045 12.3155V12.348V12.3804L34.031 12.7699L33.9985 12.5427V12.2831L34.031 12.0559L34.1283 11.8612L34.2582 11.6665L34.4204 11.5042L34.5827 11.3744L34.7449 11.2771L34.9396 11.1797L35.1344 11.1148L35.3291 11.0499L35.5238 10.985L35.7509 10.9201L35.9456 10.8876L36.1728 10.8552L36.4 10.8227H36.6271L36.8543 10.7903H37.0815H37.3086H37.5033H37.7305L37.9252 10.8227H38.1199L38.3146 10.8552L38.4769 10.8876L38.6392 10.9201L38.8014 10.9525L38.9637 11.0174L39.0935 11.0824L39.2233 11.1797L39.3531 11.342ZM39.7425 11.8612L38.7365 11.991V12.0559L38.769 12.1208L38.8014 12.1857L38.8339 12.2182V12.2506L38.8014 12.2182L38.769 12.1857H38.7365L38.7041 12.1533L38.6716 12.1208H38.6392V12.0884H38.6067L38.5743 12.0559L38.5418 12.0235V11.991L38.5094 11.9586L38.4769 11.9261L39.3531 11.342H39.3856L39.418 11.3744H39.4505V11.4069H39.4829V11.4393H39.5154H39.5478V11.4718L39.5803 11.5042L39.6127 11.5367L39.6452 11.5691L39.6776 11.6016L39.7101 11.6665L39.7425 11.7638V11.8612ZM39.7425 11.8612C39.775 12.1208 39.5478 12.3804 39.2882 12.4129C38.9961 12.4453 38.769 12.2506 38.7365 11.991L39.7425 11.8612ZM38.8663 13.3215L37.8603 13.2566L37.8928 13.1268L37.9252 12.997V12.8997L37.9577 12.8023L37.9901 12.7049L38.055 12.6076L38.0875 12.5102L38.1199 12.4129L38.1848 12.348L38.2497 12.2506L38.2822 12.1857L38.3471 12.1208L38.412 12.0559L38.4444 12.0235L38.5094 11.9586L38.5743 11.9261L38.6067 11.8936L38.6392 11.8612L38.7041 11.8287L38.7365 11.7963L38.769 11.7638H38.8014V11.7314H38.8339L38.8014 11.7638L38.769 11.7963V11.8287L38.7365 11.8936V11.9261V11.991L39.7425 11.8612V11.9586V12.0559L39.7101 12.1857L39.6452 12.2506L39.6127 12.348L39.5478 12.4129L39.4829 12.4453L39.4505 12.5102L39.418 12.5427L39.3531 12.5751L39.3206 12.6076H39.2882L39.2557 12.64L39.2233 12.6725H39.1908L39.1584 12.7049V12.7374H39.1259L39.0935 12.7699V12.8023H39.061L39.0286 12.8348V12.8672L38.9961 12.8997V12.9321L38.9637 12.9646V12.997L38.9312 13.0619V13.0944L38.8988 13.1593V13.2242L38.8663 13.3215ZM38.6716 14.4573L37.763 14.0679V14.0355V14.003H37.7954V13.9706V13.9381V13.9057V13.8732V13.8408H37.8279V13.8083V13.7759V13.7434V13.711V13.6785V13.6461V13.6136V13.5811V13.5487V13.5162L37.8603 13.4838V13.4189V13.3864V13.354V13.2891V13.2566L38.8663 13.3215V13.354V13.3864V13.4189V13.4838V13.5162V13.5487V13.5811L38.8339 13.6136V13.6461V13.6785V13.7434V13.7759V13.8083V13.8408V13.8732V13.9057L38.8014 13.9381V13.9706V14.003V14.0355V14.0679V14.1004L38.769 14.1328V14.1653V14.1977V14.2302L38.7365 14.2626V14.2951L38.7041 14.36V14.3924V14.4249L38.6716 14.4573Z" fill="black"/>
<path d="M43.4097 15.3C44.2534 15.4948 47.8231 16.0789 50.3544 17.7988" stroke="black" stroke-width="0.962952" stroke-linecap="round" stroke-linejoin="round"/>
<path d="M28.4818 17.6703C28.709 17.5729 29.0011 17.7027 29.1309 17.9623C29.2607 18.2219 29.1633 18.514 28.9362 18.5789L28.4818 17.6703ZM21.7967 24.2905L20.9205 23.7063L21.1152 23.3818L21.3424 23.0573L21.5696 22.7652L21.7967 22.4407L22.0239 22.1486L22.2835 21.8566L22.5431 21.5969L22.8027 21.3373L23.0948 21.0777L23.3544 20.8181L23.6465 20.5909L23.9061 20.3638L24.1982 20.1366L24.4902 19.9094L24.7823 19.7147L25.0419 19.52L25.334 19.3578L25.5936 19.1631L25.8857 19.0008L26.1453 18.8385L26.4049 18.7087L26.6321 18.5465L26.8917 18.4167L27.1188 18.3193L27.3136 18.1895L27.5407 18.0921L27.7354 17.9948L27.8977 17.9299L28.0924 17.8325L28.2222 17.7676L28.352 17.7352L28.4818 17.6703L28.9362 18.5789L28.8388 18.6438L28.709 18.6763L28.5792 18.7412L28.4169 18.8061L28.2547 18.9034L28.0599 19.0008L27.8652 19.0981L27.6381 19.1955L27.4434 19.3253L27.1837 19.4227L26.9566 19.5849L26.697 19.7147L26.4698 19.877L26.2102 20.0068L25.9181 20.2015L25.6585 20.3638L25.3989 20.5585L25.1393 20.7532L24.8472 20.9479L24.5876 21.1751L24.328 21.3698L24.0359 21.5969L23.7763 21.8566L23.5491 22.0837L23.2895 22.3433L23.0299 22.603L22.8027 22.8626L22.5756 23.1222L22.3484 23.4143L22.1537 23.7063L21.959 23.9984L21.7967 24.2905ZM21.7967 24.2905C21.6669 24.5176 21.3749 24.5501 21.1477 24.3878C20.8881 24.258 20.7907 23.9335 20.9205 23.7063L21.7967 24.2905Z" fill="black"/>
<path d="M44.9348 18.6438C45.6812 19.0008 48.1151 20.3313 49.9973 22.4407" stroke="black" stroke-width="0.962952" stroke-linecap="round" stroke-linejoin="round"/>
<path d="M29.4553 21.6946C28.6115 22.3436 25.2041 25.102 23.906 28.5744" stroke="black" stroke-width="0.962952" stroke-linecap="round" stroke-linejoin="round"/>
<path fill-rule="evenodd" clip-rule="evenodd" d="M35.3937 13.1557C36.0428 13.5127 36.5945 14.4538 36.3673 14.9081C36.1401 15.33 35.1341 15.0704 34.4851 14.7134C33.836 14.324 32.9598 13.318 33.4791 13.1557C33.9983 13.0259 34.7447 12.7987 35.3937 13.1557Z" fill="#98EFE4"/>
<path fill-rule="evenodd" clip-rule="evenodd" d="M39.4178 12.3452C39.0284 12.5074 38.8986 13.0267 38.8986 13.5134C38.931 13.9678 39.5476 13.9678 39.937 13.6757C40.294 13.3836 40.651 13.3836 40.5212 13.0267C40.4238 12.8319 40.0993 12.5399 39.8397 12.3776C39.645 12.2803 39.58 12.2478 39.4178 12.3452Z" fill="#98EFE4"/>
</svg>
