<svg viewBox="0 0 195 195" fill="none" xmlns="http://www.w3.org/2000/svg">
<mask id="mask0_11706_5184" style="mask-type:luminance" maskUnits="userSpaceOnUse" x="1" y="1" width="192" height="192">
<path d="M193 1H1V193H193V1Z" fill="white"/>
</mask>
<g mask="url(#mask0_11706_5184)">
<path d="M97 193C150.019 193 193 150.019 193 97C193 43.9806 150.019 1 97 1C43.9806 1 1 43.9806 1 97C1 150.019 43.9806 193 97 193Z" fill="#0B53BF"/>
<path d="M114.28 27.0996V39.4596C138.94 46.8996 157 69.8196 157 96.9996C157 124.18 138.94 147.1 114.28 154.54V166.9C145.72 159.22 169 130.84 169 96.9996C169 63.1596 145.72 34.7796 114.28 27.0996Z" fill="white"/>
<path d="M37 96.9996C37 69.8196 55.06 46.8996 79.72 39.4596V27.0996C48.28 34.7796 25 63.1596 25 96.9996C25 130.84 48.28 159.22 79.72 166.9V154.54C55.06 147.16 37 124.18 37 96.9996Z" fill="white"/>
<path d="M122.8 110.38C122.8 85.84 84.3402 95.92 84.3402 82.36C84.3402 77.5 88.2402 74.38 95.6802 74.38C104.56 74.38 107.62 78.7 108.58 84.52H120.82C119.728 73.5976 113.459 66.7012 103 64.6468V55H91.0002V64.3024C79.542 65.7616 72.3402 72.4342 72.3402 82.36C72.3402 107.02 110.86 97.78 110.86 111.1C110.86 116.14 106 119.5 97.7802 119.5C87.0402 119.5 83.5002 114.76 82.1802 108.22H70.2402C71.0136 120.183 78.3906 127.671 91.0002 129.539V139H103V129.665C115.307 128.075 122.8 120.916 122.8 110.38Z" fill="white"/>
</g>
</svg>
